<svg width="40" height="41" viewBox="0 0 40 41" fill="none" xmlns="http://www.w3.org/2000/svg">
<path d="M0 1.65552C0 1.07603 0 0.786291 0.111609 0.564956C0.209784 0.370265 0.366436 0.211976 0.559114 0.112776C0.778159 0 1.06491 0 1.6384 0H20.192C22.7546 0 24.832 2.09911 24.832 4.68849C24.832 7.27786 22.7546 9.37697 20.192 9.37697H1.6384C1.06491 9.37697 0.778159 9.37697 0.559114 9.2642C0.366436 9.165 0.209784 9.00671 0.111609 8.81202C0 8.59068 0 8.30094 0 7.72145V1.65552Z" fill="white"/>
<path d="M0 12.1965C0 11.617 0 11.3273 0.111609 11.106C0.209784 10.9113 0.366436 10.753 0.559114 10.6538C0.778159 10.541 1.06491 10.541 1.6384 10.541H23.456C26.0186 10.541 28.096 12.6401 28.096 15.2295C28.096 17.8189 26.0186 19.918 23.456 19.918H1.6384C1.06491 19.918 0.778159 19.918 0.559114 19.8052C0.366436 19.706 0.209784 19.5477 0.111609 19.353C0 19.1317 0 18.8419 0 18.2625V12.1965Z" fill="white"/>
<path d="M0 22.7375C0 22.1581 0 21.8683 0.111609 21.647C0.209784 21.4523 0.366436 21.294 0.559114 21.1948C0.778159 21.082 1.06491 21.082 1.6384 21.082H35.36C37.9226 21.082 40 23.1811 40 25.7705C40 28.3599 37.9226 30.459 35.36 30.459H1.6384C1.06491 30.459 0.778159 30.459 0.559114 30.3462C0.366436 30.247 0.209784 30.0887 0.111609 29.894C0 29.6727 0 29.383 0 28.8035V22.7375Z" fill="white"/>
<path d="M0 33.2785C0 32.6991 0 32.4093 0.111609 32.188C0.209784 31.9933 0.366436 31.835 0.559114 31.7358C0.778159 31.623 1.06491 31.623 1.6384 31.623H31.776C34.3386 31.623 36.416 33.7221 36.416 36.3115C36.416 38.9009 34.3386 41 31.776 41H1.6384C1.06491 41 0.778159 41 0.559114 40.8872C0.366436 40.788 0.209784 40.6297 0.111609 40.435C0 40.2137 0 39.924 0 39.3445V33.2785Z" fill="white"/>
</svg>
