<svg width="29" height="28" viewBox="0 0 29 28" fill="none" xmlns="http://www.w3.org/2000/svg">
<path d="M13.4626 17.4418L11.3043 19.6002C10.8493 20.0552 10.126 20.0552 9.6593 19.6118C9.53096 19.4835 9.40263 19.3668 9.2743 19.2385C8.07263 18.0252 6.98763 16.7535 6.0193 15.4235C5.06263 14.0935 4.29263 12.7635 3.73263 11.4452C3.1843 10.1152 2.9043 8.8435 2.9043 7.63016C2.9043 6.83683 3.0443 6.0785 3.3243 5.3785C3.6043 4.66683 4.04763 4.0135 4.66596 3.43016C5.41263 2.69516 6.2293 2.3335 7.09263 2.3335C7.4193 2.3335 7.74596 2.4035 8.03763 2.5435C8.34096 2.6835 8.6093 2.8935 8.8193 3.19683L11.526 7.01183C11.736 7.3035 11.8876 7.57183 11.9926 7.8285C12.0976 8.0735 12.156 8.3185 12.156 8.54016C12.156 8.82016 12.0743 9.10016 11.911 9.3685C11.7593 9.63683 11.5376 9.91683 11.2576 10.1968L10.371 11.1185C10.2426 11.2468 10.1843 11.3985 10.1843 11.5852C10.1843 11.6785 10.196 11.7602 10.2193 11.8535C10.2543 11.9468 10.2893 12.0168 10.3126 12.0868C10.5226 12.4718 10.8843 12.9735 11.3976 13.5802C11.9226 14.1868 12.4826 14.8052 13.0893 15.4235C13.206 15.5402 13.3343 15.6568 13.451 15.7735C13.9176 16.2285 13.9293 16.9752 13.4626 17.4418Z" fill="#FCFCFC"/>
<path d="M26.2031 21.3849C26.2031 21.7115 26.1448 22.0499 26.0281 22.3766C25.9931 22.4699 25.9581 22.5632 25.9115 22.6566C25.7131 23.0766 25.4565 23.4732 25.1182 23.8466C24.5465 24.4766 23.9165 24.9316 23.2048 25.2232C23.1931 25.2232 23.1815 25.2349 23.1698 25.2349C22.4815 25.5149 21.7348 25.6666 20.9298 25.6666C19.7398 25.6666 18.4681 25.3866 17.1265 24.8149C15.7848 24.2432 14.4432 23.4732 13.1132 22.5049C12.6582 22.1666 12.2032 21.8282 11.7715 21.4665L15.5865 17.6515C15.9132 17.8965 16.2048 18.0832 16.4498 18.2115C16.5082 18.2349 16.5782 18.2699 16.6598 18.3049C16.7532 18.3399 16.8465 18.3515 16.9515 18.3515C17.1498 18.3515 17.3015 18.2816 17.4298 18.1532L18.3165 17.2782C18.6082 16.9866 18.8882 16.7649 19.1565 16.6249C19.4248 16.4615 19.6931 16.3799 19.9848 16.3799C20.2065 16.3799 20.4398 16.4265 20.6965 16.5315C20.9532 16.6365 21.2215 16.7882 21.5132 16.9866L25.3748 19.7282C25.6782 19.9382 25.8881 20.1832 26.0165 20.4749C26.1331 20.7665 26.2031 21.0582 26.2031 21.3849Z" fill="#FCFCFC"/>
</svg>
