<svg width="30" height="28" viewBox="0 0 30 28" fill="none" xmlns="http://www.w3.org/2000/svg">
<mask id="mask0_865_5899" style="mask-type:luminance" maskUnits="userSpaceOnUse" x="0" y="0" width="30" height="28">
<path d="M0.885742 0H29.3107V28H0.885742V0Z" fill="white"/>
</mask>
<g mask="url(#mask0_865_5899)">
<path d="M15.0982 0.00537109C7.24941 0.00537109 0.885742 6.36904 0.885742 14.2179C0.885742 20.8776 5.47168 26.4501 11.6541 27.9922C11.5878 27.8003 11.5451 27.5776 11.5451 27.3017V24.8725C10.9683 24.8725 10.0019 24.8725 9.7591 24.8725C8.78668 24.8725 7.92215 24.4544 7.50285 23.6775C7.03738 22.814 6.95684 21.4935 5.80324 20.6858C5.46098 20.4169 5.72152 20.1101 6.11598 20.1516C6.84434 20.3577 7.4484 20.8575 8.01684 21.5989C8.58301 22.3415 8.84949 22.5097 9.90715 22.5097C10.42 22.5097 11.1875 22.4801 11.9099 22.3664C12.2984 21.3798 12.97 20.4714 13.7907 20.0426C9.05793 19.5558 6.79934 17.2013 6.79934 14.0047C6.79934 12.6284 7.38559 11.2972 8.38168 10.1756C8.0548 9.06232 7.64379 6.79186 8.50723 5.92725C10.6367 5.92725 11.9241 7.30826 12.2332 7.68131C13.2944 7.31771 14.4599 7.11162 15.6845 7.11162C16.9115 7.11162 18.0817 7.31771 19.1453 7.68365C19.4508 7.31295 20.7394 5.92725 22.8736 5.92725C23.7407 6.79303 23.3249 9.07295 22.9945 10.1839C23.9846 11.3031 24.5673 12.6308 24.5673 14.0047C24.5673 17.199 22.3123 19.5523 17.5866 20.0415C18.8871 20.7201 19.8357 22.6269 19.8357 24.0636V27.3017C19.8357 27.4248 19.8085 27.5137 19.7943 27.619C25.3325 25.6779 29.3107 20.4193 29.3107 14.2179C29.3107 6.36904 22.9471 0.00537109 15.0982 0.00537109Z" fill="white"/>
</g>
</svg>
