<svg width="29" height="28" viewBox="0 0 29 28" fill="none" xmlns="http://www.w3.org/2000/svg">
<path d="M18.8092 2.3335H9.47591C5.39258 2.3335 3.64258 4.66683 3.64258 8.16683V19.8335C3.64258 23.3335 5.39258 25.6668 9.47591 25.6668H18.8092C22.8926 25.6668 24.6426 23.3335 24.6426 19.8335V8.16683C24.6426 4.66683 22.8926 2.3335 18.8092 2.3335ZM9.47591 14.2918H14.1426C14.6209 14.2918 15.0176 14.6885 15.0176 15.1668C15.0176 15.6452 14.6209 16.0418 14.1426 16.0418H9.47591C8.99758 16.0418 8.60091 15.6452 8.60091 15.1668C8.60091 14.6885 8.99758 14.2918 9.47591 14.2918ZM18.8092 20.7085H9.47591C8.99758 20.7085 8.60091 20.3118 8.60091 19.8335C8.60091 19.3552 8.99758 18.9585 9.47591 18.9585H18.8092C19.2876 18.9585 19.6842 19.3552 19.6842 19.8335C19.6842 20.3118 19.2876 20.7085 18.8092 20.7085ZM21.7259 10.7918H19.3926C17.6192 10.7918 16.1842 9.35683 16.1842 7.5835V5.25016C16.1842 4.77183 16.5809 4.37516 17.0592 4.37516C17.5376 4.37516 17.9342 4.77183 17.9342 5.25016V7.5835C17.9342 8.3885 18.5876 9.04183 19.3926 9.04183H21.7259C22.2042 9.04183 22.6009 9.4385 22.6009 9.91683C22.6009 10.3952 22.2042 10.7918 21.7259 10.7918Z" fill="#FCFCFC"/>
</svg>
