<svg width="114" height="110" viewBox="0 0 114 110" fill="none" xmlns="http://www.w3.org/2000/svg">
<path d="M114 55.0003C114 60.8844 108.281 65.7932 106.558 71.1014C104.771 76.6069 106.45 83.9251 103.117 88.5056C99.75 93.1318 92.2458 93.7811 87.6196 97.1478C83.0391 100.481 80.1212 107.436 74.6183 109.223C69.3091 110.947 62.8847 107.094 57 107.094C51.1153 107.094 44.6905 110.948 39.3823 109.223C33.8767 107.436 30.9609 100.481 26.3809 97.1478C21.7541 93.7811 14.2505 93.1318 10.8838 88.5056C7.55039 83.9251 9.22958 76.6043 7.44287 71.1014C5.7185 65.7922 0 60.8829 0 55.0003C0 49.1176 5.7185 44.2068 7.44287 38.8991C9.22958 33.3962 7.55039 26.0754 10.8838 21.4949C14.2505 16.8687 21.7541 16.2194 26.3809 12.8527C30.9609 9.5193 33.8788 2.56415 39.3817 0.777445C44.6915 -0.946412 51.1158 2.90695 57 2.90695C62.8842 2.90695 69.3096 -0.94797 74.6183 0.777445C80.1238 2.56415 83.0391 9.51878 87.6196 12.8527C92.2458 16.2194 99.75 16.8687 103.117 21.4949C106.45 26.0754 104.771 33.3957 106.558 38.8986C108.281 44.2068 114 49.1161 114 55.0003Z" fill="#DEFFEF" fill-opacity="0.2"/>
<path d="M96.125 55.3955C96.125 76.9658 78.6328 94.458 57.0625 94.458C35.4922 94.458 18 76.9658 18 55.3955C18 33.8252 35.4922 16.333 57.0625 16.333C78.6328 16.333 96.125 33.8252 96.125 55.3955Z" fill="url(#paint0_linear_881_10682)"/>
<path d="M73.7736 40.9156L50.0314 64.6859L41.8518 56.5297C40.3252 55.0078 37.8549 55.0094 36.3314 56.5344C34.8049 58.0609 34.8064 60.5375 36.3346 62.0625L47.2752 72.9766C48.8018 74.5 51.2736 74.4969 52.7971 72.9719L79.3002 46.4375C80.8236 44.9109 80.8236 42.4391 79.2986 40.9141C77.7721 39.3891 75.2986 39.3891 73.7736 40.9156Z" fill="white"/>
<defs>
<linearGradient id="paint0_linear_881_10682" x1="57.0625" y1="16.333" x2="57.0625" y2="94.458" gradientUnits="userSpaceOnUse">
<stop stop-color="#42D778"/>
<stop offset="0.996" stop-color="#34B171"/>
<stop offset="1" stop-color="#34B171"/>
</linearGradient>
</defs>
</svg>
